<svg width="667" height="1000" xmlns="http://www.w3.org/2000/svg" version="1.1">


<!-- internal style sheet -->
<style type="text/css"><![CDATA[
 rect.background{fill:white}
 rect{fill:none; stroke:rgb(25,25,25); stroke-width:2}
 text{font-family:Helvetica; text-anchor:middle; fill:rgb(25,25,25)}
 line{stroke:rgb(25,25,25); stroke-width:4}
 path{fill:none; stroke:rgb(25,25,25); stroke-width:2}
 circle{fill:white; stroke:black; stroke-width:2}

 path.p0{fill:rgb(0,102,255); stroke:rgb(25,25,25); stroke-width:2}
 path.ps0{fill:rgb(0,77,191); stroke:rgb(20,20,20); stroke-width:2}
 rect.r0{fill:rgb(0,102,255); stroke:rgb(25,25,25); stroke-width:2}
 path.p1{fill:rgb(0,255,102); stroke:rgb(25,25,25); stroke-width:2}
 path.ps1{fill:rgb(0,191,77); stroke:rgb(20,20,20); stroke-width:2}
 rect.r1{fill:rgb(0,255,102); stroke:rgb(25,25,25); stroke-width:2}
 path.p2{fill:rgb(204,255,0); stroke:rgb(25,25,25); stroke-width:2}
 path.ps2{fill:rgb(153,191,0); stroke:rgb(20,20,20); stroke-width:2}
 rect.r2{fill:rgb(204,255,0); stroke:rgb(25,25,25); stroke-width:2}
 path.p3{fill:rgb(255,0,0); stroke:rgb(25,25,25); stroke-width:2}
 path.ps3{fill:rgb(191,0,0); stroke:rgb(20,20,20); stroke-width:2}
 rect.r3{fill:rgb(255,0,0); stroke:rgb(25,25,25); stroke-width:2}
]]></style>

 <rect class="background" width="667" height="1000"/>
  <!-- cells -->
  <path class="p3" d="M 614 80 L 596 98 L 563 147 L 579 133 L 614 80"/>
  <line x1="614" y1="80" x2="579" y2="133"/>
  <line x1="614" y1="80" x2="596" y2="98"/>
  <path class="p3" d="M 596 98 L 579 115 L 548 162 L 563 147 L 596 98"/>
  <line x1="596" y1="98" x2="579" y2="115"/>
  <path class="p3" d="M 579 133 L 563 147 L 530 197 L 544 185 L 579 133"/>
  <line x1="579" y1="133" x2="544" y2="185"/>
  <path class="p3" d="M 563 147 L 548 162 L 517 208 L 530 197 L 563 147"/>
  <path class="p3" d="M 579 115 L 561 133 L 533 176 L 548 162 L 579 115"/>
  <line x1="579" y1="115" x2="561" y2="133"/>
  <path class="p3" d="M 561 133 L 544 150 L 517 191 L 533 176 L 561 133"/>
  <line x1="561" y1="133" x2="544" y2="150"/>
  <path class="p3" d="M 548 162 L 533 176 L 504 220 L 517 208 L 548 162"/>
  <path class="p3" d="M 533 176 L 517 191 L 491 232 L 504 220 L 533 176"/>
  <path class="p3" d="M 544 185 L 530 197 L 498 246 L 509 238 L 544 185"/>
  <line x1="544" y1="185" x2="509" y2="238"/>
  <path class="p3" d="M 530 197 L 517 208 L 487 255 L 498 246 L 530 197"/>
  <path class="p3" d="M 509 238 L 498 246 L 465 296 L 474 290 L 509 238"/>
  <line x1="509" y1="238" x2="474" y2="290"/>
  <path class="p3" d="M 498 246 L 487 255 L 456 302 L 465 296 L 498 246"/>
  <path class="p3" d="M 517 208 L 504 220 L 476 264 L 487 255 L 517 208"/>
  <path class="p3" d="M 504 220 L 491 232 L 465 273 L 476 264 L 504 220"/>
  <path class="p3" d="M 487 255 L 476 264 L 447 308 L 456 302 L 487 255"/>
  <path class="p3" d="M 476 264 L 465 273 L 439 313 L 447 308 L 476 264"/>
  <path class="p3" d="M 544 150 L 526 168 L 502 205 L 517 191 L 544 150"/>
  <line x1="544" y1="150" x2="526" y2="168"/>
  <path class="p3" d="M 526 168 L 509 185 L 487 220 L 502 205 L 526 168"/>
  <line x1="526" y1="168" x2="509" y2="185"/>
  <path class="p3" d="M 517 191 L 502 205 L 478 243 L 491 232 L 517 191"/>
  <path class="p3" d="M 502 205 L 487 220 L 465 255 L 478 243 L 502 205"/>
  <path class="p3" d="M 509 185 L 491 203 L 471 235 L 487 220 L 509 185"/>
  <line x1="509" y1="185" x2="491" y2="203"/>
  <path class="p3" d="M 491 203 L 474 220 L 456 249 L 471 235 L 491 203"/>
  <line x1="491" y1="203" x2="474" y2="220"/>
  <path class="p3" d="M 487 220 L 471 235 L 452 267 L 465 255 L 487 220"/>
  <path class="p3" d="M 471 235 L 456 249 L 439 278 L 452 267 L 471 235"/>
  <path class="p3" d="M 491 232 L 478 243 L 454 281 L 465 273 L 491 232"/>
  <path class="p3" d="M 478 243 L 465 255 L 443 290 L 454 281 L 478 243"/>
  <path class="p3" d="M 465 273 L 454 281 L 430 319 L 439 313 L 465 273"/>
  <path class="p3" d="M 454 281 L 443 290 L 421 325 L 430 319 L 454 281"/>
  <path class="p3" d="M 465 255 L 452 267 L 432 299 L 443 290 L 465 255"/>
  <path class="p3" d="M 452 267 L 439 278 L 421 308 L 432 299 L 452 267"/>
  <path class="p3" d="M 443 290 L 432 299 L 412 331 L 421 325 L 443 290"/>
  <path class="p3" d="M 432 299 L 421 308 L 404 337 L 412 331 L 432 299"/>
  <path class="p3" d="M 474 290 L 465 296 L 432 345 L 439 343 L 474 290"/>
  <line x1="474" y1="290" x2="439" y2="343"/>
  <path class="p3" d="M 465 296 L 456 302 L 425 348 L 432 345 L 465 296"/>
  <path class="p3" d="M 439 343 L 432 345 L 399 395 L 404 395 L 439 343"/>
  <line x1="439" y1="343" x2="404" y2="395"/>
  <path class="p3" d="M 432 345 L 425 348 L 395 395 L 399 395 L 432 345"/>
  <path class="p3" d="M 456 302 L 447 308 L 419 351 L 425 348 L 456 302"/>
  <path class="p3" d="M 447 308 L 439 313 L 412 354 L 419 351 L 447 308"/>
  <path class="p3" d="M 425 348 L 419 351 L 390 395 L 395 395 L 425 348"/>
  <path class="p3" d="M 419 351 L 412 354 L 386 395 L 390 395 L 419 351"/>
  <path class="p3" d="M 404 395 L 399 395 L 366 445 L 369 448 L 404 395"/>
  <line x1="404" y1="395" x2="369" y2="448"/>
  <path class="p3" d="M 399 395 L 395 395 L 364 442 L 366 445 L 399 395"/>
  <path class="p3" d="M 369 448 L 366 445 L 334 494 L 334 500 L 369 448"/>
  <line x1="369" y1="448" x2="334" y2="500"/>
  <path class="p3" d="M 366 445 L 364 442 L 334 488 L 334 494 L 366 445"/>
  <path class="p3" d="M 395 395 L 390 395 L 362 439 L 364 442 L 395 395"/>
  <path class="p3" d="M 390 395 L 386 395 L 360 436 L 362 439 L 390 395"/>
  <path class="p3" d="M 364 442 L 362 439 L 334 482 L 334 488 L 364 442"/>
  <path class="p3" d="M 362 439 L 360 436 L 334 477 L 334 482 L 362 439"/>
  <path class="p3" d="M 439 313 L 430 319 L 406 357 L 412 354 L 439 313"/>
  <path class="p3" d="M 430 319 L 421 325 L 399 360 L 406 357 L 430 319"/>
  <path class="p3" d="M 412 354 L 406 357 L 382 395 L 386 395 L 412 354"/>
  <path class="p3" d="M 406 357 L 399 360 L 377 395 L 382 395 L 406 357"/>
  <path class="p3" d="M 421 325 L 412 331 L 393 363 L 399 360 L 421 325"/>
  <path class="p3" d="M 412 331 L 404 337 L 386 366 L 393 363 L 412 331"/>
  <path class="p3" d="M 399 360 L 393 363 L 373 395 L 377 395 L 399 360"/>
  <path class="p3" d="M 393 363 L 386 366 L 369 395 L 373 395 L 393 363"/>
  <path class="p3" d="M 386 395 L 382 395 L 358 433 L 360 436 L 386 395"/>
  <path class="p3" d="M 382 395 L 377 395 L 355 430 L 358 433 L 382 395"/>
  <path class="p3" d="M 360 436 L 358 433 L 334 471 L 334 477 L 360 436"/>
  <path class="p3" d="M 358 433 L 355 430 L 334 465 L 334 471 L 358 433"/>
  <path class="p3" d="M 377 395 L 373 395 L 353 427 L 355 430 L 377 395"/>
  <path class="p3" d="M 373 395 L 369 395 L 351 424 L 353 427 L 373 395"/>
  <path class="p3" d="M 355 430 L 353 427 L 334 459 L 334 465 L 355 430"/>
  <path class="p3" d="M 353 427 L 351 424 L 334 453 L 334 459 L 353 427"/>
  <path class="p3" d="M 474 220 L 456 238 L 439 267 L 456 249 L 474 220"/>
  <line x1="474" y1="220" x2="456" y2="238"/>
  <path class="p3" d="M 456 238 L 439 255 L 421 286 L 439 267 L 456 238"/>
  <line x1="456" y1="238" x2="439" y2="255"/>
  <path class="p3" d="M 456 249 L 439 267 L 421 297 L 439 278 L 456 249"/>
  <path class="p3" d="M 439 267 L 421 286 L 404 316 L 421 297 L 439 267"/>
  <path class="p3" d="M 439 255 L 421 273 L 404 304 L 421 286 L 439 255"/>
  <line x1="439" y1="255" x2="421" y2="273"/>
  <path class="p3" d="M 421 273 L 404 290 L 386 322 L 404 304 L 421 273"/>
  <line x1="421" y1="273" x2="404" y2="290"/>
  <path class="p3" d="M 421 286 L 404 304 L 386 335 L 404 316 L 421 286"/>
  <path class="p3" d="M 404 304 L 386 322 L 369 354 L 386 335 L 404 304"/>
  <path class="p3" d="M 439 278 L 421 297 L 404 327 L 421 308 L 439 278"/>
  <path class="p3" d="M 421 297 L 404 316 L 386 347 L 404 327 L 421 297"/>
  <path class="p3" d="M 421 308 L 404 327 L 386 357 L 404 337 L 421 308"/>
  <path class="p3" d="M 404 327 L 386 347 L 369 378 L 386 357 L 404 327"/>
  <path class="p3" d="M 404 316 L 386 335 L 369 367 L 386 347 L 404 316"/>
  <path class="p3" d="M 386 335 L 369 354 L 351 386 L 369 367 L 386 335"/>
  <path class="p3" d="M 386 347 L 369 367 L 351 398 L 369 378 L 386 347"/>
  <path class="p3" d="M 369 367 L 351 386 L 334 418 L 351 398 L 369 367"/>
  <path class="p3" d="M 404 290 L 386 308 L 369 340 L 386 322 L 404 290"/>
  <line x1="404" y1="290" x2="386" y2="308"/>
  <path class="p3" d="M 386 308 L 369 325 L 351 359 L 369 340 L 386 308"/>
  <line x1="386" y1="308" x2="369" y2="325"/>
  <path class="p3" d="M 386 322 L 369 340 L 351 373 L 369 354 L 386 322"/>
  <path class="p3" d="M 369 340 L 351 359 L 334 392 L 351 373 L 369 340"/>
  <path class="p3" d="M 369 325 L 351 343 L 334 377 L 351 359 L 369 325"/>
  <line x1="369" y1="325" x2="351" y2="343"/>
  <path class="p3" d="M 351 343 L 334 360 L 316 395 L 334 377 L 351 343"/>
  <line x1="334" y1="360" x2="316" y2="395"/>
  <line x1="351" y1="343" x2="334" y2="360"/>
  <path class="p3" d="M 351 359 L 334 377 L 316 411 L 334 392 L 351 359"/>
  <path class="p3" d="M 334 377 L 316 395 L 298 430 L 316 411 L 334 377"/>
  <line x1="316" y1="395" x2="298" y2="430"/>
  <path class="p3" d="M 369 354 L 351 373 L 334 406 L 351 386 L 369 354"/>
  <path class="p3" d="M 351 373 L 334 392 L 316 426 L 334 406 L 351 373"/>
  <path class="p3" d="M 351 386 L 334 406 L 316 439 L 334 418 L 351 386"/>
  <path class="p3" d="M 334 406 L 316 426 L 298 459 L 316 439 L 334 406"/>
  <path class="p3" d="M 334 392 L 316 411 L 298 445 L 316 426 L 334 392"/>
  <path class="p3" d="M 316 411 L 298 430 L 281 465 L 298 445 L 316 411"/>
  <line x1="298" y1="430" x2="281" y2="465"/>
  <path class="p3" d="M 316 426 L 298 445 L 281 480 L 298 459 L 316 426"/>
  <path class="p3" d="M 298 445 L 281 465 L 263 500 L 281 480 L 298 445"/>
  <line x1="281" y1="465" x2="263" y2="500"/>
  <path class="p3" d="M 404 337 L 386 357 L 369 387 L 386 366 L 404 337"/>
  <path class="p3" d="M 386 357 L 369 378 L 351 408 L 369 387 L 386 357"/>
  <path class="p3" d="M 386 366 L 369 387 L 351 417 L 369 395 L 386 366"/>
  <path class="p3" d="M 369 387 L 351 408 L 334 439 L 351 417 L 369 387"/>
  <path class="p3" d="M 369 378 L 351 398 L 334 429 L 351 408 L 369 378"/>
  <path class="p3" d="M 351 398 L 334 418 L 316 450 L 334 429 L 351 398"/>
  <path class="p3" d="M 351 408 L 334 429 L 316 461 L 334 439 L 351 408"/>
  <path class="p3" d="M 334 429 L 316 450 L 298 482 L 316 461 L 334 429"/>
  <path class="p3" d="M 369 395 L 351 417 L 334 447 L 351 424 L 369 395"/>
  <path class="p3" d="M 351 417 L 334 439 L 316 469 L 334 447 L 351 417"/>
  <path class="p3" d="M 351 424 L 334 447 L 316 477 L 334 453 L 351 424"/>
  <path class="p3" d="M 334 447 L 316 469 L 298 500 L 316 477 L 334 447"/>
  <path class="p3" d="M 334 439 L 316 461 L 298 492 L 316 469 L 334 439"/>
  <path class="p3" d="M 316 461 L 298 482 L 281 515 L 298 492 L 316 461"/>
  <path class="p3" d="M 316 469 L 298 492 L 281 523 L 298 500 L 316 469"/>
  <path class="p3" d="M 298 492 L 281 515 L 263 547 L 281 523 L 298 492"/>
  <path class="p3" d="M 334 418 L 316 439 L 298 472 L 316 450 L 334 418"/>
  <path class="p3" d="M 316 439 L 298 459 L 281 493 L 298 472 L 316 439"/>
  <path class="p3" d="M 316 450 L 298 472 L 281 504 L 298 482 L 316 450"/>
  <path class="p3" d="M 298 472 L 281 493 L 263 526 L 281 504 L 298 472"/>
  <path class="p3" d="M 298 459 L 281 480 L 263 514 L 281 493 L 298 459"/>
  <path class="p3" d="M 281 480 L 263 500 L 246 535 L 263 514 L 281 480"/>
  <line x1="263" y1="500" x2="246" y2="535"/>
  <path class="p3" d="M 281 493 L 263 514 L 246 548 L 263 526 L 281 493"/>
  <path class="p3" d="M 263 514 L 246 535 L 228 570 L 246 548 L 263 514"/>
  <line x1="246" y1="535" x2="228" y2="570"/>
  <path class="p3" d="M 298 482 L 281 504 L 263 537 L 281 515 L 298 482"/>
  <path class="p3" d="M 281 504 L 263 526 L 246 560 L 263 537 L 281 504"/>
  <path class="p3" d="M 281 515 L 263 537 L 246 570 L 263 547 L 281 515"/>
  <path class="p3" d="M 263 537 L 246 560 L 228 593 L 246 570 L 263 537"/>
  <path class="p3" d="M 263 526 L 246 548 L 228 582 L 246 560 L 263 526"/>
  <path class="p3" d="M 246 548 L 228 570 L 211 605 L 228 582 L 246 548"/>
  <line x1="228" y1="570" x2="211" y2="605"/>
  <path class="p3" d="M 246 560 L 228 582 L 211 617 L 228 593 L 246 560"/>
  <path class="p3" d="M 228 582 L 211 605 L 193 640 L 211 617 L 228 582"/>
  <line x1="211" y1="605" x2="193" y2="640"/>
  <path class="p3" d="M 334 500 L 334 494 L 301 543 L 298 553 L 334 500"/>
  <line x1="334" y1="500" x2="298" y2="553"/>
  <path class="p3" d="M 334 494 L 334 488 L 303 534 L 301 543 L 334 494"/>
  <path class="p3" d="M 298 553 L 301 543 L 268 592 L 263 605 L 298 553"/>
  <line x1="298" y1="553" x2="263" y2="605"/>
  <path class="p3" d="M 301 543 L 303 534 L 272 579 L 268 592 L 301 543"/>
  <path class="p3" d="M 334 488 L 334 482 L 305 524 L 303 534 L 334 488"/>
  <path class="p3" d="M 334 482 L 334 477 L 307 515 L 305 524 L 334 482"/>
  <path class="p3" d="M 303 534 L 305 524 L 277 566 L 272 579 L 303 534"/>
  <path class="p3" d="M 305 524 L 307 515 L 281 553 L 277 566 L 305 524"/>
  <path class="p3" d="M 263 605 L 268 592 L 235 641 L 228 658 L 263 605"/>
  <line x1="263" y1="605" x2="228" y2="658"/>
  <path class="p3" d="M 268 592 L 272 579 L 242 624 L 235 641 L 268 592"/>
  <path class="p3" d="M 228 658 L 235 641 L 202 690 L 193 710 L 228 658"/>
  <line x1="228" y1="658" x2="193" y2="710"/>
  <path class="p3" d="M 235 641 L 242 624 L 211 669 L 202 690 L 235 641"/>
  <path class="p3" d="M 272 579 L 277 566 L 248 607 L 242 624 L 272 579"/>
  <path class="p3" d="M 277 566 L 281 553 L 255 590 L 248 607 L 277 566"/>
  <path class="p3" d="M 242 624 L 248 607 L 220 649 L 211 669 L 242 624"/>
  <path class="p3" d="M 248 607 L 255 590 L 228 628 L 220 649 L 248 607"/>
  <path class="p3" d="M 334 477 L 334 471 L 309 505 L 307 515 L 334 477"/>
  <path class="p3" d="M 334 471 L 334 465 L 312 496 L 309 505 L 334 471"/>
  <path class="p3" d="M 307 515 L 309 505 L 285 539 L 281 553 L 307 515"/>
  <path class="p3" d="M 309 505 L 312 496 L 290 526 L 285 539 L 309 505"/>
  <path class="p3" d="M 334 465 L 334 459 L 314 486 L 312 496 L 334 465"/>
  <path class="p3" d="M 334 459 L 334 453 L 316 477 L 314 486 L 334 459"/>
  <path class="p3" d="M 312 496 L 314 486 L 294 513 L 290 526 L 312 496"/>
  <path class="p3" d="M 314 486 L 316 477 L 298 500 L 294 513 L 314 486"/>
  <path class="p3" d="M 281 553 L 285 539 L 261 574 L 255 590 L 281 553"/>
  <path class="p3" d="M 285 539 L 290 526 L 268 557 L 261 574 L 285 539"/>
  <path class="p3" d="M 255 590 L 261 574 L 237 608 L 228 628 L 255 590"/>
  <path class="p3" d="M 261 574 L 268 557 L 246 588 L 237 608 L 261 574"/>
  <path class="p3" d="M 290 526 L 294 513 L 274 540 L 268 557 L 290 526"/>
  <path class="p3" d="M 294 513 L 298 500 L 281 523 L 274 540 L 294 513"/>
  <path class="p3" d="M 268 557 L 274 540 L 255 567 L 246 588 L 268 557"/>
  <path class="p3" d="M 274 540 L 281 523 L 263 547 L 255 567 L 274 540"/>
  <path class="p3" d="M 193 710 L 202 690 L 169 738 L 158 763 L 193 710"/>
  <line x1="193" y1="710" x2="158" y2="763"/>
  <path class="p3" d="M 202 690 L 211 669 L 180 714 L 169 738 L 202 690"/>
  <path class="p3" d="M 158 763 L 169 738 L 137 787 L 123 815 L 158 763"/>
  <line x1="158" y1="763" x2="123" y2="815"/>
  <path class="p3" d="M 169 738 L 180 714 L 150 760 L 137 787 L 169 738"/>
  <path class="p3" d="M 211 669 L 220 649 L 191 690 L 180 714 L 211 669"/>
  <path class="p3" d="M 220 649 L 228 628 L 202 666 L 191 690 L 220 649"/>
  <path class="p3" d="M 180 714 L 191 690 L 163 732 L 150 760 L 180 714"/>
  <path class="p3" d="M 191 690 L 202 666 L 176 704 L 163 732 L 191 690"/>
  <path class="p3" d="M 123 815 L 137 787 L 104 836 L 88 868 L 123 815"/>
  <line x1="123" y1="815" x2="88" y2="868"/>
  <path class="p3" d="M 137 787 L 150 760 L 119 805 L 104 836 L 137 787"/>
  <path class="p3" d="M 88 868 L 104 836 L 71 885 L 53 920 L 88 868"/>
  <line x1="88" y1="868" x2="53" y2="920"/>
  <line x1="53" y1="920" x2="71" y2="885"/>
  <path class="p3" d="M 104 836 L 119 805 L 88 850 L 71 885 L 104 836"/>
  <line x1="71" y1="885" x2="88" y2="850"/>
  <path class="p3" d="M 150 760 L 163 732 L 134 773 L 119 805 L 150 760"/>
  <path class="p3" d="M 163 732 L 176 704 L 150 742 L 134 773 L 163 732"/>
  <path class="p3" d="M 119 805 L 134 773 L 106 815 L 88 850 L 119 805"/>
  <line x1="88" y1="850" x2="106" y2="815"/>
  <path class="p3" d="M 134 773 L 150 742 L 123 780 L 106 815 L 134 773"/>
  <line x1="106" y1="815" x2="123" y2="780"/>
  <path class="p3" d="M 228 628 L 237 608 L 213 642 L 202 666 L 228 628"/>
  <path class="p3" d="M 237 608 L 246 588 L 224 618 L 213 642 L 237 608"/>
  <path class="p3" d="M 202 666 L 213 642 L 189 676 L 176 704 L 202 666"/>
  <path class="p3" d="M 213 642 L 224 618 L 202 649 L 189 676 L 213 642"/>
  <path class="p3" d="M 246 588 L 255 567 L 235 594 L 224 618 L 246 588"/>
  <path class="p3" d="M 255 567 L 263 547 L 246 570 L 235 594 L 255 567"/>
  <path class="p3" d="M 224 618 L 235 594 L 215 621 L 202 649 L 224 618"/>
  <path class="p3" d="M 235 594 L 246 570 L 228 593 L 215 621 L 235 594"/>
  <path class="p3" d="M 176 704 L 189 676 L 165 711 L 150 742 L 176 704"/>
  <path class="p3" d="M 189 676 L 202 649 L 180 679 L 165 711 L 189 676"/>
  <path class="p3" d="M 150 742 L 165 711 L 141 745 L 123 780 L 150 742"/>
  <line x1="123" y1="780" x2="141" y2="745"/>
  <path class="p3" d="M 165 711 L 180 679 L 158 710 L 141 745 L 165 711"/>
  <line x1="141" y1="745" x2="158" y2="710"/>
  <path class="p3" d="M 202 649 L 215 621 L 196 648 L 180 679 L 202 649"/>
  <path class="p3" d="M 215 621 L 228 593 L 211 617 L 196 648 L 215 621"/>
  <path class="p3" d="M 180 679 L 196 648 L 176 675 L 158 710 L 180 679"/>
  <line x1="158" y1="710" x2="176" y2="675"/>
  <path class="p3" d="M 196 648 L 211 617 L 193 640 L 176 675 L 196 648"/>
  <line x1="176" y1="675" x2="193" y2="640"/>

</svg>